<svg xmlns="http://www.w3.org/2000/svg" xmlns:xlink="http://www.w3.org/1999/xlink" viewBox="0 0 1376.74 397.21"><defs><style>.cls-1,.cls-23{fill:none;}.cls-2{isolation:isolate;}.cls-3{fill:#006d8e;}.cls-4{fill:#006380;}.cls-5{fill:#00b5ea;}.cls-6{fill:#006684;}.cls-7{fill:#141414;}.cls-8{fill:#252525;}.cls-9{fill:#151515;}.cls-10{fill:#161616;}.cls-11,.cls-28{fill:#282828;}.cls-12{fill:#242424;}.cls-13{clip-path:url(#clip-path);}.cls-14{clip-path:url(#clip-path-2);}.cls-15{clip-path:url(#clip-path-3);}.cls-16{clip-path:url(#clip-path-4);}.cls-17{clip-path:url(#clip-path-5);}.cls-18{clip-path:url(#clip-path-6);}.cls-19{clip-path:url(#clip-path-7);}.cls-20{clip-path:url(#clip-path-8);}.cls-21{clip-path:url(#clip-path-9);}.cls-22,.cls-25{fill:#fff;}.cls-22,.cls-23,.cls-24,.cls-27,.cls-28{stroke:#282828;stroke-miterlimit:10;}.cls-22,.cls-23,.cls-24{stroke-width:9.23px;}.cls-24,.cls-29{fill:#00c5ff;}.cls-26{fill:#cddee0;}.cls-27{fill:#333;stroke-width:7.96px;}.cls-28{stroke-width:7.08px;}</style><clipPath id="clip-path"><path class="cls-1" d="M100.84,265.08H81.1c2.34,0,4.63-.06,6.91-.21h19.74C105.47,265,103.18,265.08,100.84,265.08Z"/></clipPath><clipPath id="clip-path-2"><path class="cls-1" d="M107.75,264.87H88c28.08-1.73,49.87-13.88,49.87-28.61,0-15.91-25.42-28.8-56.78-28.8h19.74c31.36,0,56.78,12.89,56.78,28.8C157.62,251,135.83,263.14,107.75,264.87Z"/></clipPath><clipPath id="clip-path-3"><path class="cls-1" d="M404.64,326.85H384.9c0-17.75-19.12-32.58-44.59-36.21h19.74C385.52,294.27,404.64,309.1,404.64,326.85Z"/></clipPath><clipPath id="clip-path-4"><path class="cls-1" d="M360.05,290.64H340.31l-2.18-.27h19.74Z"/></clipPath><clipPath id="clip-path-5"><path class="cls-1" d="M357.87,290.37H338.13c-.79-.09-1.52-.16-2.24-.22h19.74C356.36,290.21,357.08,290.28,357.87,290.37Z"/></clipPath><clipPath id="clip-path-6"><path class="cls-1" d="M355.63,290.15H335.89c-.79-.09-1.52-.12-2.24-.18-.39,0-.77,0-1.16-.06s-.79-.07-1.18-.07h19.74c.39,0,.79,0,1.18.07s.77,0,1.16.06C354.11,290,354.84,290.06,355.63,290.15Z"/></clipPath><clipPath id="clip-path-7"><path class="cls-1" d="M351.05,289.84H331.31c-1.12,0-2.09-.06-3.09-.06H348C349,289.78,349.93,289.82,351.05,289.84Z"/></clipPath><clipPath id="clip-path-8"><path class="cls-1" d="M348,265.08H328.22c30.27,0,55-12,56.68-27.13h19.74C402.92,253.08,378.23,265.08,348,265.08Z"/></clipPath><clipPath id="clip-path-9"><path class="cls-1" d="M404.64,234.59H384.9c-1.72-15.14-26.41-27.13-56.68-27.13H348C378.23,207.46,402.92,219.45,404.64,234.59Z"/></clipPath></defs><title>Asset 39</title><g id="Layer_2" data-name="Layer 2"><g id="Layer_1-2" data-name="Layer 1"><g class="cls-2"><polygon class="cls-3" points="1358.1 165.12 1338.09 165.12 1356.74 165.12 1376.74 165.12 1358.1 165.12"/><polygon class="cls-4" points="1358.1 392.6 1338.09 392.6 1330.37 384.61 1350.38 384.61 1358.1 392.6"/><polygon class="cls-5" points="1369.02 365.3 1376.74 373.29 1376.74 392.6 1358.1 392.6 1350.38 384.61 1350.38 365.3 1369.02 365.3"/><polygon class="cls-3" points="1350.38 365.3 1330.37 365.3 1349.02 365.3 1369.02 365.3 1350.38 365.3"/><rect class="cls-4" x="1330.37" y="365.3" width="20.01" height="19.3"/><polygon class="cls-3" points="1350.38 192.42 1330.37 192.42 1349.02 192.42 1369.02 192.42 1350.38 192.42"/><rect class="cls-4" x="1330.37" y="192.42" width="20.01" height="19.3"/><polygon class="cls-5" points="1369.02 192.42 1350.38 211.72 1350.38 192.42 1369.02 192.42"/><polygon class="cls-5" points="1376.74 165.12 1376.74 184.43 1369.02 192.42 1350.38 192.42 1350.38 173.11 1358.1 165.12 1376.74 165.12"/><polygon class="cls-6" points="1350.38 173.11 1330.37 173.11 1338.09 165.12 1358.1 165.12 1350.38 173.11"/><rect class="cls-4" x="1330.37" y="173.11" width="20.01" height="19.31"/><polygon class="cls-4" points="1350.38 384.61 1330.37 384.61 1311.72 365.3 1331.73 365.3 1350.38 384.61"/><polygon class="cls-3" points="1331.73 365.3 1311.72 365.3 1330.37 365.3 1350.38 365.3 1331.73 365.3"/><polygon class="cls-5" points="1350.38 365.3 1350.38 384.61 1331.73 365.3 1350.38 365.3"/><polygon class="cls-7" points="1285.54 278.85 1265.54 278.85 1246.89 259.54 1266.89 259.54 1285.54 278.85"/><polygon class="cls-8" points="1266.89 259.54 1350.38 173.11 1350.38 192.42 1350.38 211.72 1285.54 278.85 1266.89 259.54"/><polygon class="cls-9" points="1266.89 259.54 1246.89 259.54 1330.37 173.11 1350.38 173.11 1266.89 259.54"/><polygon class="cls-7" points="1331.73 365.3 1311.72 365.3 1246.86 298.17 1266.87 298.17 1331.73 365.3"/><polygon class="cls-7" points="1266.87 298.17 1246.86 298.17 1228.21 278.87 1248.22 278.87 1266.87 298.17"/><polygon class="cls-6" points="1183.39 384.61 1163.38 384.61 1182.03 365.3 1202.03 365.3 1183.39 384.61"/><rect class="cls-7" x="1163.38" y="365.3" width="20.01" height="19.3"/><polygon class="cls-7" points="1248.22 278.87 1228.21 278.87 1163.38 211.72 1183.39 211.72 1248.22 278.87"/><polygon class="cls-9" points="1183.39 346 1163.38 346 1228.21 278.87 1248.22 278.87 1183.39 346"/><rect class="cls-7" x="1163.38" y="345.99" width="20.01" height="19.3"/><polygon class="cls-8" points="1183.39 346 1248.22 278.87 1266.87 298.17 1202.03 365.3 1183.39 384.61 1183.39 365.3 1183.39 346"/><polygon class="cls-10" points="1183.39 192.42 1163.38 192.42 1182.03 192.42 1202.03 192.42 1183.39 192.42"/><rect class="cls-4" x="1163.38" y="173.11" width="20.01" height="19.31"/><polygon class="cls-5" points="1183.39 173.11 1202.03 192.42 1183.39 192.42 1183.39 173.11"/><polygon class="cls-3" points="1164.74 365.3 1144.73 365.3 1163.38 365.3 1183.39 365.3 1164.74 365.3"/><polygon class="cls-5" points="1183.39 346 1183.39 365.3 1164.74 365.3 1183.39 346"/><polygon class="cls-6" points="1164.74 365.3 1144.73 365.3 1163.38 346 1183.39 346 1164.74 365.3"/><polygon class="cls-8" points="1202.03 192.42 1266.87 259.54 1285.54 278.85 1350.38 346 1369.02 365.3 1350.38 365.3 1331.73 365.3 1266.87 298.17 1248.22 278.87 1183.39 211.72 1164.74 192.42 1183.39 192.42 1202.03 192.42"/><polygon class="cls-10" points="1164.74 192.42 1144.73 192.42 1163.38 192.42 1183.39 192.42 1164.74 192.42"/><polygon class="cls-7" points="1183.39 211.72 1163.38 211.72 1144.73 192.42 1164.74 192.42 1183.39 211.72"/><polygon class="cls-5" points="1202.03 365.3 1183.39 384.61 1175.67 392.6 1157.02 392.6 1157.02 373.29 1164.74 365.3 1183.39 365.3 1183.39 384.61 1202.03 365.3"/><rect class="cls-4" x="1137.01" y="373.29" width="20.01" height="19.3"/><polygon class="cls-6" points="1157.02 373.29 1137.01 373.29 1144.73 365.3 1164.74 365.3 1157.02 373.29"/><polygon class="cls-4" points="1164.74 192.42 1144.73 192.42 1137.01 184.43 1157.02 184.43 1164.74 192.42"/><rect class="cls-4" x="1137.01" y="165.12" width="20.01" height="19.3"/><polygon class="cls-5" points="1175.67 165.12 1183.39 173.11 1183.39 192.42 1164.74 192.42 1157.02 184.43 1157.02 165.12 1175.67 165.12"/><polygon class="cls-3" points="1157.02 165.12 1137.01 165.12 1155.66 165.12 1175.67 165.12 1157.02 165.12"/></g><path class="cls-11" d="M711.84,294.63a5.9,5.9,0,0,0,5.28,3.05,14.26,14.26,0,0,0,14-14.49l-.59-36.8a14.27,14.27,0,0,0-14.49-14,6,6,0,0,0-4.22,1.86"/><path class="cls-11" d="M525.63,297.62h0a5.92,5.92,0,0,1-5.17,3.22,14.26,14.26,0,0,1-14.49-14L505.38,250a14.24,14.24,0,0,1,14-14.48,5.88,5.88,0,0,1,4.27,1.72"/><path class="cls-11" d="M698.71,333.58l1.11,1.24a153.53,153.53,0,0,1,18.29,24.92,110.92,110.92,0,0,1,7.22,14.71,11,11,0,0,1-14.46,14.19,118.71,118.71,0,0,1-13.93-7,104.08,104.08,0,0,1-23-18.4h0c-1.07-1.14-2.11-2.31-3.14-3.52"/><line class="cls-11" x1="718.12" y1="359.73" x2="696.94" y2="381.6"/><path class="cls-11" d="M568.8,361.24l-.06.07q-2.54,3.18-5.27,6.09a104.21,104.21,0,0,1-20.15,16.67,120.4,120.4,0,0,1-13.7,7.48,11,11,0,0,1-14.91-13.72,111.06,111.06,0,0,1,6.74-14.94,154.66,154.66,0,0,1,18.29-26.44l.27-.33"/><line class="cls-11" x1="543.32" y1="384.07" x2="521.45" y2="362.89"/><path class="cls-11" d="M516.38,273.68a102,102,0,1,1,154,86.07l-.21.12a102,102,0,0,1-153.83-86.19Z"/><path class="cls-11" d="M699.32,286.15s-103.84,61.69-169,.85C590.31,307.7,646.42,306.14,699.32,286.15Z"/><path class="cls-11" d="M568.29,362.25a104.71,104.71,0,0,1-14.16,11.56c-12.64-6-20.18-18.72-17.53-31.4a24.66,24.66,0,0,1,1.2-4c.06-.14.12-.28.17-.42,0,.06.11.11.17.17q4,4.1,8.37,7.92l1.06.93.64.55,1.36,1.15.26.21,1.56,1.29.23.18c.42.34.85.69,1.29,1l1,.77c.24.2.5.39.75.58l1.11.85c.27.21.54.42.82.62s.65.49,1,.73.73.55,1.1.81q1.8,1.31,3.63,2.56l2.06,1.39,2.09,1.37c.47.32,1,.62,1.45.93Z"/><path class="cls-11" d="M699.31,334.76s-15.91,18.58-27.89,25c0,0,9.62,11.93,14.84,14.77C686.26,374.54,710.53,339.36,699.31,334.76Z"/><path class="cls-11" d="M698.71,333.58l1.11,1.24a153.53,153.53,0,0,1,18.29,24.92,110.92,110.92,0,0,1,7.22,14.71,11,11,0,0,1-14.46,14.19,118.71,118.71,0,0,1-13.93-7,104.08,104.08,0,0,1-23-18.4h0c-1.07-1.14-2.11-2.31-3.14-3.52"/><line class="cls-11" x1="718.12" y1="359.73" x2="696.94" y2="381.6"/><path class="cls-11" d="M568.8,361.24l-.06.07q-2.54,3.18-5.27,6.09a104.21,104.21,0,0,1-20.15,16.67,120.4,120.4,0,0,1-13.7,7.48,11,11,0,0,1-14.91-13.72,111.06,111.06,0,0,1,6.74-14.94,154.66,154.66,0,0,1,18.29-26.44l.27-.33"/><line class="cls-11" x1="543.32" y1="384.07" x2="521.45" y2="362.89"/><path class="cls-11" d="M599.31,257.61,649.82,271q-10.8,2.25-21.51,3.42a210.66,210.66,0,0,1-44.19.24q-8.86-.88-17.66-2.54c-17.81-3.34-31.09-14.9-34.24-29.06Z"/><path class="cls-11" d="M516.38,273.68a102,102,0,1,1,154,86.07l-.21.12a102,102,0,0,1-153.83-86.19Z"/><path class="cls-11" d="M534.94,288.26q87.33,35.34,167.46-2.17a7.35,7.35,0,0,0,4.23-6.79l-.5-31.21a7.37,7.37,0,0,0-10.33-6.63q-74.87,32.46-156,1.74a7.37,7.37,0,0,0-10,7l.5,31.33A7.38,7.38,0,0,0,534.94,288.26Z"/><path class="cls-11" d="M677.41,264.12l.28,17.13a4.09,4.09,0,0,1-2.86,3.74l-.76.29a158.05,158.05,0,0,1-82.41,8.39,189.89,189.89,0,0,1-29.25-7.16,4.13,4.13,0,0,1-3.08-3.68l-.28-17.2c0-2.87,3.46-4.88,6.72-3.87q54.39,16.71,104.72-1.27C673.74,259.33,677.37,261.22,677.41,264.12Z"/><path class="cls-11" d="M677.48,268l.21,13a34.88,34.88,0,0,1-3.62,4.31,158.05,158.05,0,0,1-82.41,8.39Z"/><circle class="cls-11" cx="644.41" cy="281.03" r="5.34"/><circle class="cls-11" cx="592.59" cy="281.86" r="5.34"/><path class="cls-11" d="M560.41,356c43.82-22.1,128-39.89,152.09-44.69"/><g class="cls-2"><rect class="cls-7" x="958.26" y="207.45" width="19.74" height="181.16"/><polygon class="cls-10" points="978 207.45 958.26 207.45 982.59 207.45 1002.33 207.45 978 207.45"/><rect class="cls-12" x="978" y="207.45" width="24.33" height="181.16"/></g><g class="cls-2"><rect class="cls-7" x="889.33" y="182.74" width="19.74" height="24.71"/><polygon class="cls-10" points="909.08 182.74 889.34 182.74 1051.52 182.74 1071.26 182.74 909.08 182.74"/><polygon class="cls-12" points="1071.26 182.74 1071.26 207.45 1002.33 207.45 978 207.45 909.08 207.45 909.08 182.74 1071.26 182.74"/></g><g class="cls-2"><rect class="cls-7" x="781.22" y="182.74" width="19.74" height="205.87"/><polygon class="cls-10" points="800.96 182.74 781.22 182.74 805.55 182.74 825.29 182.74 800.96 182.74"/><rect class="cls-12" x="800.96" y="182.74" width="24.33" height="205.87"/></g><g class="cls-2"><g class="cls-2"><g class="cls-13"><g class="cls-2"><path class="cls-10" d="M100.84,265.08H81.1c2.34,0,4.63-.06,6.91-.21h19.74c-2.28.15-4.57.21-6.91.21"/></g></g></g><g class="cls-2"><g class="cls-14"><g class="cls-2"><path class="cls-10" d="M107.75,264.87H88a104.64,104.64,0,0,0,13.1-1.63h19.74a104.64,104.64,0,0,1-13.1,1.63"/><path class="cls-10" d="M120.85,263.24H101.11a78.2,78.2,0,0,0,18.82-6h19.74a78.2,78.2,0,0,1-18.82,6"/><path class="cls-9" d="M139.67,257.28H119.93c11-5.25,17.95-12.73,17.95-21,0-15.91-25.42-28.8-56.78-28.8h19.74c31.36,0,56.78,12.89,56.78,28.8,0,8.29-6.9,15.77-18,21"/></g></g></g><polygon class="cls-10" points="44.07 265.08 24.33 265.08 81.1 265.08 100.84 265.08 44.07 265.08"/><polygon class="cls-10" points="19.74 182.73 0 182.73 81.1 182.73 100.84 182.73 19.74 182.73"/><rect class="cls-7" y="182.73" width="19.74" height="205.87"/><path class="cls-12" d="M100.84,182.73c44.78,0,81.11,24,81.11,53.53,0,20.94-18.24,39.09-44.84,47.86a115.11,115.11,0,0,1-36.27,5.66H44.07v98.81H19.74V182.73Zm6.91,82.14c28.08-1.73,49.87-13.88,49.87-28.61,0-15.91-25.42-28.8-56.78-28.8H44.07v57.62h56.77c2.34,0,4.63-.06,6.91-.21"/></g><g class="cls-2"><rect class="cls-7" x="384.9" y="326.85" width="19.74" height="61.74"/><rect class="cls-7" x="384.9" y="234.59" width="19.74" height="3.36"/><g class="cls-2"><g class="cls-15"><g class="cls-2"><path class="cls-9" d="M404.64,326.85H384.9c0-17.75-19.12-32.58-44.59-36.21h19.74c25.47,3.63,44.59,18.46,44.59,36.21"/></g></g></g><g class="cls-2"><g class="cls-16"><g class="cls-2"><path class="cls-9" d="M360.05,290.64H340.31l-2.18-.27h19.74l2.18.27"/></g></g></g><g class="cls-2"><g class="cls-17"><g class="cls-2"><path class="cls-9" d="M357.87,290.37H338.13c-.79-.09-1.52-.16-2.24-.22h19.74c.73.06,1.45.13,2.24.22"/></g></g></g><g class="cls-2"><g class="cls-18"><g class="cls-2"><path class="cls-9" d="M355.63,290.15H335.89c-.79-.09-1.52-.12-2.24-.18-.39,0-.77,0-1.16-.06s-.79-.07-1.18-.07h19.74c.39,0,.79,0,1.18.07s.77,0,1.16.06c.72.06,1.45.09,2.24.18"/></g></g></g><g class="cls-2"><g class="cls-19"><g class="cls-2"><path class="cls-9" d="M351.05,289.84H331.31c-1.12,0-2.09-.06-3.09-.06H348c1,0,2,0,3.09.06"/></g></g></g><g class="cls-2"><g class="cls-20"><g class="cls-2"><path class="cls-10" d="M348,265.08H328.22a107.09,107.09,0,0,0,20-1.85H368a107,107,0,0,1-20,1.85"/><path class="cls-10" d="M368,263.23H348.25a77.77,77.77,0,0,0,18.82-6h19.74a77.77,77.77,0,0,1-18.82,6"/><path class="cls-9" d="M386.81,257.28H367.07c10.28-4.9,17-11.72,17.83-19.33h19.74c-.86,7.61-7.55,14.43-17.83,19.33"/></g></g></g><g class="cls-2"><g class="cls-21"><g class="cls-2"><path class="cls-9" d="M404.64,234.59H384.9c-1.72-15.14-26.41-27.13-56.68-27.13H348c30.27,0,55,12,56.68,27.13"/></g></g></g><polygon class="cls-10" points="291.22 265.08 271.48 265.08 328.22 265.08 347.96 265.08 291.22 265.08"/><rect class="cls-7" x="247.02" y="182.73" width="19.74" height="205.87"/><path class="cls-12" d="M429,363.9l.21,24.69H404.64V326.85c0-17.75-19.12-32.58-44.59-36.21l-2.18-.27c-.79-.09-1.51-.16-2.24-.22s-1.52-.12-2.24-.18c-.39,0-.77,0-1.16-.06s-.79-.07-1.18-.07c-1.12,0-2.09-.06-3.09-.06H291.09v98.81H266.77V182.73H348c43.48,0,79,22.58,81,50.91.06.89.09,1.75.09,2.62s0,1.75-.09,2.64c-1.15,16-13,30.12-30.84,39.41a75.3,75.3,0,0,1,14.73,11.47C422.94,300.12,429,313,429,326.85Zm-81-98.82c30.27,0,55-12,56.68-27.13v-3.36c-1.72-15.14-26.41-27.13-56.68-27.13H291.22v57.62H348"/><polygon class="cls-10" points="266.76 182.73 247.03 182.73 328.22 182.73 347.96 182.73 266.76 182.73"/></g><path class="cls-22" d="M701,292.45a6.06,6.06,0,0,0,5.4,3.13,14.58,14.58,0,0,0,14.34-14.81l-.6-37.63a14.58,14.58,0,0,0-4.44-10.24,14.73,14.73,0,0,0-2.18-1.74,14.47,14.47,0,0,0-8.19-2.36,6,6,0,0,0-4.31,1.9"/><line class="cls-23" x1="713.47" y1="231.39" x2="722.86" y2="207.34"/><path class="cls-24" d="M728.83,207.25a6,6,0,1,1-6.07-5.88A6,6,0,0,1,728.83,207.25Z"/><path class="cls-22" d="M510.69,295.51h0a6,6,0,0,1-5.28,3.29,14.58,14.58,0,0,1-14.81-14.34l-.6-37.62a14.49,14.49,0,0,1,4.1-10.38,14.08,14.08,0,0,1,2.12-1.81,14.54,14.54,0,0,1,8.12-2.62,6,6,0,0,1,4.36,1.76"/><line class="cls-23" x1="496.32" y1="234.87" x2="486.16" y2="211.14"/><path class="cls-24" d="M492.14,211a6,6,0,0,1-3.62,5.59,5.86,5.86,0,0,1-2.26.48,6,6,0,1,1,5.88-6.07Z"/><path class="cls-25" d="M687.62,332.27l1.14,1.27A157,157,0,0,1,707.46,359a115.31,115.31,0,0,1,7.38,15,11.22,11.22,0,0,1-14.79,14.5,120.1,120.1,0,0,1-14.24-7.19,105.8,105.8,0,0,1-23.5-18.82h0q-1.65-1.76-3.22-3.6Z"/><line class="cls-1" x1="707.46" y1="359" x2="685.81" y2="381.36"/><path class="cls-25" d="M554.82,360.54l-.06.08c-1.72,2.16-3.52,4.23-5.38,6.22a106.85,106.85,0,0,1-20.6,17,122.52,122.52,0,0,1-14,7.64,11.22,11.22,0,0,1-15.25-14,115.39,115.39,0,0,1,6.9-15.27,158.08,158.08,0,0,1,18.69-27l.28-.33Z"/><line class="cls-1" x1="528.78" y1="383.88" x2="506.42" y2="362.23"/><path class="cls-25" d="M501.24,271a104.25,104.25,0,1,1,157.47,88l-.22.13A104.28,104.28,0,0,1,501.24,271Z"/><path class="cls-26" d="M688.25,283.78s-106.15,63.07-172.76.88C576.81,305.81,634.17,304.22,688.25,283.78Z"/><path class="cls-26" d="M554.31,361.57a106.54,106.54,0,0,1-14.48,11.82c-12.92-6.12-20.63-19.13-17.92-32.09a25.48,25.48,0,0,1,1.23-4.12c.06-.15.12-.29.17-.44l.17.18q4.11,4.18,8.56,8.1l1.08,1,.66.56,1.39,1.17.27.22c.53.45,1.06.88,1.59,1.31l.23.19,1.32,1.05,1,.79.77.6,1.13.86.84.64,1,.75,1.13.83c1.22.88,2.45,1.75,3.71,2.61.69.48,1.39.95,2.1,1.42l2.13,1.4,1.48.95Z"/><path class="cls-26" d="M688.23,333.47S672,352.47,659.72,359c0,0,9.84,12.2,15.18,15.1C674.9,374.14,699.71,338.17,688.23,333.47Z"/><path class="cls-23" d="M687.62,332.27l1.14,1.27A157,157,0,0,1,707.46,359a115.31,115.31,0,0,1,7.38,15,11.22,11.22,0,0,1-14.79,14.5,120.1,120.1,0,0,1-14.24-7.19,105.8,105.8,0,0,1-23.5-18.82h0q-1.65-1.76-3.22-3.6"/><line class="cls-23" x1="707.46" y1="359" x2="685.81" y2="381.36"/><path class="cls-23" d="M554.82,360.54l-.06.08c-1.72,2.16-3.52,4.23-5.38,6.22a106.85,106.85,0,0,1-20.6,17,122.52,122.52,0,0,1-14,7.64,11.22,11.22,0,0,1-15.25-14,115.39,115.39,0,0,1,6.9-15.27,158.08,158.08,0,0,1,18.69-27l.28-.33"/><line class="cls-23" x1="528.78" y1="383.88" x2="506.42" y2="362.23"/><path class="cls-26" d="M586,254.61l51.63,13.67q-11,2.3-22,3.5a216,216,0,0,1-45.18.24q-9-.91-18-2.6c-18.21-3.41-31.78-15.23-35-29.7Z"/><path class="cls-23" d="M501.24,271a104.25,104.25,0,1,1,157.47,88l-.22.13A104.28,104.28,0,0,1,501.24,271Z"/><path class="cls-23" d="M520.21,285.94q89.28,36.12,171.18-2.21a7.53,7.53,0,0,0,4.33-7l-.51-31.9a7.55,7.55,0,0,0-10.57-6.78q-76.51,33.18-159.44,1.78A7.54,7.54,0,0,0,515,247.05l.52,32A7.52,7.52,0,0,0,520.21,285.94Z"/><path class="cls-27" d="M665.85,261.26l.28,17.52a4.17,4.17,0,0,1-2.91,3.82l-.78.3a161.73,161.73,0,0,1-84.24,8.58,193.88,193.88,0,0,1-29.91-7.33,4.19,4.19,0,0,1-3.14-3.76l-.28-17.58c0-2.93,3.53-5,6.86-4q55.6,17.08,107-1.29C662.1,256.37,665.81,258.3,665.85,261.26Z"/><path class="cls-28" d="M665.92,265.2l.21,13.29a34.78,34.78,0,0,1-3.69,4.41,161.73,161.73,0,0,1-84.24,8.58Z"/><circle class="cls-29" cx="632.12" cy="278.55" r="5.46"/><circle class="cls-29" cx="579.14" cy="279.4" r="5.46"/><path class="cls-23" d="M546.25,355.16c44.8-22.58,130.84-40.77,155.47-45.68"/><path class="cls-11" d="M131.11,133.2c10.58-2.39,392.1-142.64,1085.94-33.71C1217,86.89,829.1-138.06,131.11,133.2Z"/></g></g></svg>