<svg xmlns="http://www.w3.org/2000/svg" xmlns:xlink="http://www.w3.org/1999/xlink" viewBox="0 0 1376.74 397.21"><defs><style>.cls-1,.cls-27{fill:none;}.cls-2{isolation:isolate;}.cls-3{fill:#006d8e;}.cls-4{fill:#006380;}.cls-5{fill:#00b5ea;}.cls-6{fill:#848484;}.cls-7{fill:#006684;}.cls-8{fill:gray;}.cls-9{fill:#eaeaea;}.cls-10{fill:#8e8e8e;}.cls-11{fill:#868787;stroke:#868787;stroke-width:9.03px;}.cls-11,.cls-26,.cls-27,.cls-28,.cls-31,.cls-32{stroke-miterlimit:10;}.cls-12{fill:#e6e6e6;}.cls-13{clip-path:url(#clip-path);}.cls-14{fill:#8f8f8f;}.cls-15{clip-path:url(#clip-path-2);}.cls-16{fill:#8a8a8a;}.cls-17{fill:#858585;}.cls-18{clip-path:url(#clip-path-3);}.cls-19{clip-path:url(#clip-path-4);}.cls-20{clip-path:url(#clip-path-5);}.cls-21{clip-path:url(#clip-path-6);}.cls-22{clip-path:url(#clip-path-7);}.cls-23{clip-path:url(#clip-path-8);}.cls-24{clip-path:url(#clip-path-9);}.cls-25{clip-path:url(#clip-path-10);}.cls-26,.cls-29{fill:#fff;}.cls-26,.cls-27,.cls-28,.cls-31,.cls-32{stroke:#282828;}.cls-26,.cls-27,.cls-28{stroke-width:9.23px;}.cls-28,.cls-33{fill:#00c5ff;}.cls-30{fill:#cddee0;}.cls-31{fill:#333;stroke-width:7.96px;}.cls-32{fill:#282828;stroke-width:7.08px;}</style><clipPath id="clip-path"><path class="cls-1" d="M100.84,265.08H81.1c2.33,0,4.63-.06,6.91-.22h19.74C105.47,265,103.17,265.08,100.84,265.08Z"/></clipPath><clipPath id="clip-path-2"><path class="cls-1" d="M107.75,264.86H88c28.08-1.72,49.87-13.87,49.87-28.61,0-15.9-25.42-28.79-56.78-28.79h19.74c31.36,0,56.78,12.89,56.78,28.79C157.62,251,135.83,263.14,107.75,264.86Z"/></clipPath><clipPath id="clip-path-3"><path class="cls-1" d="M404.64,326.85H384.9c0-17.74-19.12-32.58-44.59-36.2h19.74C385.52,294.27,404.64,309.11,404.64,326.85Z"/></clipPath><clipPath id="clip-path-4"><path class="cls-1" d="M360.05,290.65H340.31l-2.18-.28h19.74Z"/></clipPath><clipPath id="clip-path-5"><path class="cls-1" d="M357.87,290.37H338.13c-.79-.09-1.52-.16-2.24-.22h19.74C356.36,290.21,357.08,290.28,357.87,290.37Z"/></clipPath><clipPath id="clip-path-6"><path class="cls-1" d="M355.63,290.15H335.89c-.79-.09-1.52-.12-2.24-.18l-1.16-.06h19.74l1.16.06C354.11,290,354.84,290.06,355.63,290.15Z"/></clipPath><clipPath id="clip-path-7"><path class="cls-1" d="M352.23,289.91H332.49a11.66,11.66,0,0,0-1.18-.06h19.74A11.66,11.66,0,0,1,352.23,289.91Z"/></clipPath><clipPath id="clip-path-8"><path class="cls-1" d="M351.05,289.85H331.31c-1.12,0-2.09-.07-3.09-.07H348C349,289.78,349.93,289.82,351.05,289.85Z"/></clipPath><clipPath id="clip-path-9"><path class="cls-1" d="M348,265.08H328.22c30.27,0,54.95-12,56.68-27.14h19.74C402.91,253.08,378.23,265.08,348,265.08Z"/></clipPath><clipPath id="clip-path-10"><path class="cls-1" d="M404.64,234.6H384.9c-1.73-15.14-26.41-27.14-56.68-27.14H348C378.23,207.46,402.91,219.46,404.64,234.6Z"/></clipPath></defs><title>Asset 40</title><g id="Layer_2" data-name="Layer 2"><g id="Layer_1-2" data-name="Layer 1"><g class="cls-2"><polygon class="cls-3" points="1358.1 165.12 1338.09 165.12 1356.74 165.12 1376.74 165.12 1358.1 165.12"/><polygon class="cls-4" points="1358.1 392.6 1338.09 392.6 1330.37 384.61 1350.38 384.61 1358.1 392.6"/><polygon class="cls-5" points="1369.02 365.3 1376.74 373.29 1376.74 392.6 1358.1 392.6 1350.38 384.61 1350.38 365.3 1369.02 365.3"/><polygon class="cls-3" points="1350.38 365.3 1330.37 365.3 1349.02 365.3 1369.02 365.3 1350.38 365.3"/><rect class="cls-4" x="1330.37" y="365.3" width="20.01" height="19.31"/><polygon class="cls-5" points="1369.02 192.41 1350.38 211.72 1350.38 192.41 1369.02 192.41"/><rect class="cls-4" x="1330.37" y="192.41" width="20.01" height="19.31"/><polygon class="cls-3" points="1350.38 192.41 1330.37 192.41 1349.02 192.41 1369.02 192.41 1350.38 192.41"/><rect class="cls-4" x="1330.37" y="173.12" width="20.01" height="19.3"/><polygon class="cls-6" points="1331.74 192.41 1311.73 192.41 1330.37 173.12 1350.38 173.12 1331.74 192.41"/><polygon class="cls-7" points="1331.74 192.41 1311.73 192.41 1338.09 165.12 1358.1 165.12 1331.74 192.41"/><polygon class="cls-5" points="1376.74 165.12 1376.74 184.42 1369.02 192.41 1350.38 192.41 1350.38 173.12 1331.74 192.41 1358.1 165.12 1376.74 165.12"/><polygon class="cls-5" points="1350.38 365.3 1350.38 384.61 1331.73 365.3 1350.38 365.3"/><polygon class="cls-4" points="1350.38 384.61 1330.37 384.61 1311.72 365.3 1331.73 365.3 1350.38 384.61"/><polygon class="cls-3" points="1331.73 365.3 1311.72 365.3 1330.37 365.3 1350.38 365.3 1331.73 365.3"/><polygon class="cls-6" points="1266.89 259.54 1246.89 259.54 1311.73 192.41 1331.74 192.41 1266.89 259.54"/><polygon class="cls-8" points="1285.54 278.85 1265.54 278.85 1246.89 259.54 1266.89 259.54 1285.54 278.85"/><polygon class="cls-9" points="1331.74 192.41 1350.38 173.12 1350.38 192.41 1350.38 211.72 1285.54 278.85 1266.89 259.54 1331.74 192.41"/><polygon class="cls-8" points="1331.73 365.3 1311.72 365.3 1246.86 298.17 1266.87 298.17 1331.73 365.3"/><polygon class="cls-8" points="1266.87 298.17 1246.86 298.17 1228.22 278.87 1248.23 278.87 1266.87 298.17"/><polygon class="cls-7" points="1183.39 384.61 1163.38 384.61 1182.03 365.3 1202.03 365.3 1183.39 384.61"/><rect class="cls-8" x="1163.38" y="365.3" width="20.01" height="19.31"/><polygon class="cls-9" points="1183.39 346 1248.23 278.87 1266.87 298.17 1202.03 365.3 1183.39 384.61 1183.39 365.3 1183.39 346"/><polygon class="cls-6" points="1183.39 346 1163.38 346 1228.22 278.87 1248.23 278.87 1183.39 346"/><rect class="cls-8" x="1163.38" y="346" width="20.01" height="19.31"/><polygon class="cls-8" points="1248.23 278.87 1228.22 278.87 1163.38 211.72 1183.39 211.72 1248.23 278.87"/><polygon class="cls-10" points="1183.39 192.41 1163.38 192.41 1182.03 192.41 1202.03 192.41 1183.39 192.41"/><polygon class="cls-3" points="1164.74 365.3 1144.73 365.3 1163.38 365.3 1183.39 365.3 1164.74 365.3"/><polygon class="cls-5" points="1183.39 346 1183.39 365.3 1164.74 365.3 1183.39 346"/><polygon class="cls-7" points="1164.74 365.3 1144.73 365.3 1163.38 346 1183.39 346 1164.74 365.3"/><polygon class="cls-9" points="1202.03 192.41 1266.87 259.54 1285.54 278.85 1350.38 346 1369.02 365.3 1350.38 365.3 1331.73 365.3 1266.87 298.17 1248.23 278.87 1183.39 211.72 1164.74 192.41 1183.39 192.41 1202.03 192.41"/><polygon class="cls-8" points="1183.39 211.72 1163.38 211.72 1144.73 192.41 1164.74 192.41 1183.39 211.72"/><polygon class="cls-10" points="1164.74 192.41 1144.73 192.41 1163.38 192.41 1183.39 192.41 1164.74 192.41"/><rect class="cls-4" x="1137.01" y="373.29" width="20.01" height="19.3"/><polygon class="cls-7" points="1157.02 373.29 1137.01 373.29 1144.73 365.3 1164.74 365.3 1157.02 373.29"/><polygon class="cls-5" points="1202.03 365.3 1183.39 384.61 1175.67 392.6 1157.02 392.6 1157.02 373.29 1164.74 365.3 1183.39 365.3 1183.39 384.61 1202.03 365.3"/></g><g class="cls-2"><polygon class="cls-5" points="1183.39 173.12 1202.03 192.41 1183.39 192.41 1183.39 173.12"/><rect class="cls-4" x="1163.38" y="173.12" width="20.01" height="19.3"/><polygon class="cls-4" points="1164.74 192.41 1144.73 192.41 1137.01 184.42 1157.02 184.42 1164.74 192.41"/><polygon class="cls-3" points="1157.02 165.12 1137.01 165.12 1155.66 165.12 1175.67 165.12 1157.02 165.12"/><rect class="cls-4" x="1137.01" y="165.12" width="20.01" height="19.31"/><polygon class="cls-5" points="1175.67 165.12 1183.39 173.12 1183.39 192.41 1164.74 192.41 1157.02 184.42 1157.02 165.12 1175.67 165.12"/></g><path class="cls-11" d="M711.84,294.63a5.9,5.9,0,0,0,5.28,3.05,14.26,14.26,0,0,0,14-14.49l-.59-36.8a14.27,14.27,0,0,0-14.49-14,6,6,0,0,0-4.22,1.86"/><path class="cls-11" d="M525.63,297.62h0a5.92,5.92,0,0,1-5.17,3.22,14.26,14.26,0,0,1-14.49-14L505.38,250a14.24,14.24,0,0,1,14-14.48,5.88,5.88,0,0,1,4.27,1.72"/><path class="cls-11" d="M698.71,333.58l1.11,1.24a153.53,153.53,0,0,1,18.29,24.92,110.92,110.92,0,0,1,7.22,14.71,11,11,0,0,1-14.46,14.19,118.71,118.71,0,0,1-13.93-7,104.08,104.08,0,0,1-23-18.4h0c-1.07-1.14-2.11-2.31-3.14-3.52"/><line class="cls-11" x1="718.12" y1="359.73" x2="696.94" y2="381.6"/><path class="cls-11" d="M568.8,361.24l-.06.07q-2.54,3.18-5.27,6.09a104.21,104.21,0,0,1-20.15,16.67,120.4,120.4,0,0,1-13.7,7.48,11,11,0,0,1-14.91-13.72,111.06,111.06,0,0,1,6.74-14.94,154.66,154.66,0,0,1,18.29-26.44l.27-.33"/><line class="cls-11" x1="543.32" y1="384.07" x2="521.45" y2="362.89"/><path class="cls-11" d="M516.38,273.68a102,102,0,1,1,154,86.07l-.21.12a102,102,0,0,1-153.83-86.19Z"/><path class="cls-11" d="M699.32,286.15s-103.84,61.69-169,.85C590.31,307.7,646.42,306.14,699.32,286.15Z"/><path class="cls-11" d="M568.29,362.25a104.71,104.71,0,0,1-14.16,11.56c-12.64-6-20.19-18.72-17.53-31.4a24.66,24.66,0,0,1,1.2-4c.06-.14.12-.28.17-.42,0,.06.11.11.17.17q4,4.1,8.37,7.92l1.06.93.64.55,1.36,1.15.26.22,1.56,1.28.22.18,1.3,1,1,.77c.24.2.5.39.75.58s.74.58,1.11.85.54.42.82.62.65.49,1,.73l1.1.82q1.8,1.29,3.63,2.55l2.06,1.39,2.09,1.37c.47.32,1,.62,1.45.93Z"/><path class="cls-11" d="M699.31,334.76s-15.91,18.58-27.89,25c0,0,9.62,11.93,14.84,14.77C686.26,374.54,710.53,339.36,699.31,334.76Z"/><path class="cls-11" d="M698.71,333.58l1.11,1.24a153.53,153.53,0,0,1,18.29,24.92,110.92,110.92,0,0,1,7.22,14.71,11,11,0,0,1-14.46,14.19,118.71,118.71,0,0,1-13.93-7,104.08,104.08,0,0,1-23-18.4h0c-1.07-1.14-2.11-2.31-3.14-3.52"/><line class="cls-11" x1="718.12" y1="359.73" x2="696.94" y2="381.6"/><path class="cls-11" d="M568.8,361.24l-.06.07q-2.54,3.18-5.27,6.09a104.21,104.21,0,0,1-20.15,16.67,120.4,120.4,0,0,1-13.7,7.48,11,11,0,0,1-14.91-13.72,111.06,111.06,0,0,1,6.74-14.94,154.66,154.66,0,0,1,18.29-26.44l.27-.33"/><line class="cls-11" x1="543.32" y1="384.07" x2="521.45" y2="362.89"/><path class="cls-11" d="M599.31,257.61,649.82,271q-10.8,2.25-21.51,3.42a210.66,210.66,0,0,1-44.19.24q-8.86-.88-17.66-2.54c-17.81-3.34-31.09-14.9-34.24-29.06Z"/><path class="cls-11" d="M516.38,273.68a102,102,0,1,1,154,86.07l-.21.12a102,102,0,0,1-153.83-86.19Z"/><path class="cls-11" d="M534.94,288.26q87.33,35.34,167.46-2.17a7.35,7.35,0,0,0,4.23-6.79l-.5-31.21a7.37,7.37,0,0,0-10.33-6.63q-74.87,32.46-156,1.74a7.38,7.38,0,0,0-10,7l.5,31.33A7.38,7.38,0,0,0,534.94,288.26Z"/><path class="cls-11" d="M677.41,264.12l.28,17.13a4.09,4.09,0,0,1-2.86,3.74l-.76.29a158.05,158.05,0,0,1-82.41,8.39,187.61,187.61,0,0,1-29.25-7.16,4.13,4.13,0,0,1-3.08-3.68l-.28-17.2c0-2.87,3.46-4.88,6.72-3.87q54.39,16.71,104.72-1.27C673.74,259.33,677.37,261.22,677.41,264.12Z"/><path class="cls-11" d="M677.48,268l.21,13a34.16,34.16,0,0,1-3.62,4.31,158.05,158.05,0,0,1-82.41,8.39Z"/><circle class="cls-11" cx="644.41" cy="281.03" r="5.34"/><circle class="cls-11" cx="592.59" cy="281.86" r="5.34"/><path class="cls-11" d="M560.41,356c43.82-22.1,128-39.89,152.09-44.69"/><g class="cls-2"><rect class="cls-8" x="958.26" y="207.45" width="19.74" height="181.16"/><polygon class="cls-10" points="978 207.45 958.26 207.45 982.59 207.45 1002.34 207.45 978 207.45"/><rect class="cls-12" x="978" y="207.45" width="24.33" height="181.16"/></g><g class="cls-2"><rect class="cls-8" x="889.33" y="182.75" width="19.74" height="24.7"/><polygon class="cls-10" points="909.08 182.75 889.34 182.75 1051.52 182.75 1071.26 182.75 909.08 182.75"/><polygon class="cls-12" points="1071.26 182.75 1071.26 207.45 1002.34 207.45 978 207.45 909.08 207.45 909.08 182.75 1071.26 182.75"/></g><g class="cls-2"><rect class="cls-8" x="781.23" y="182.75" width="19.74" height="205.87"/><polygon class="cls-10" points="800.97 182.75 781.23 182.75 805.55 182.75 825.29 182.75 800.97 182.75"/><rect class="cls-12" x="800.97" y="182.75" width="24.32" height="205.87"/></g><g class="cls-2"><g class="cls-2"><g class="cls-13"><g class="cls-2"><path class="cls-14" d="M100.84,265.08H81.1c2.33,0,4.63-.06,6.91-.22h19.74c-2.28.16-4.58.22-6.91.22"/></g></g></g><g class="cls-2"><g class="cls-15"><g class="cls-2"><path class="cls-14" d="M107.75,264.86H88a103.13,103.13,0,0,0,13.12-1.63h19.74a103.13,103.13,0,0,1-13.12,1.63"/><path class="cls-16" d="M120.87,263.23H101.13a77.82,77.82,0,0,0,18.81-6h19.74a77.82,77.82,0,0,1-18.81,6"/><path class="cls-17" d="M139.68,257.28H119.94c11-5.26,17.94-12.73,17.94-21,0-15.9-25.42-28.79-56.78-28.79h19.74c31.36,0,56.78,12.89,56.78,28.79,0,8.3-6.9,15.77-17.94,21"/></g></g></g><polygon class="cls-10" points="44.07 265.08 24.33 265.08 81.1 265.08 100.84 265.08 44.07 265.08"/><polygon class="cls-10" points="19.74 182.73 0 182.73 81.1 182.73 100.84 182.73 19.74 182.73"/><rect class="cls-8" y="182.73" width="19.74" height="205.87"/><path class="cls-12" d="M100.84,182.73c44.78,0,81.11,24,81.11,53.52,0,20.95-18.24,39.11-44.84,47.87a115.4,115.4,0,0,1-36.27,5.66H44.07v98.81H19.74V182.73Zm6.91,82.13c28.08-1.72,49.87-13.87,49.87-28.61,0-15.9-25.42-28.79-56.78-28.79H44.07v57.62h56.77c2.33,0,4.63-.06,6.91-.22"/></g><g class="cls-2"><rect class="cls-8" x="384.9" y="326.85" width="19.74" height="61.74"/><rect class="cls-8" x="384.9" y="234.6" width="19.74" height="3.35"/><g class="cls-2"><g class="cls-18"><g class="cls-2"><path class="cls-17" d="M404.64,326.85H384.9c0-17.74-19.12-32.58-44.59-36.2h19.74c25.47,3.62,44.59,18.46,44.59,36.2"/></g></g></g><g class="cls-2"><g class="cls-19"><g class="cls-2"><path class="cls-17" d="M360.05,290.65H340.31l-2.18-.28h19.74l2.18.28"/></g></g></g><g class="cls-2"><g class="cls-20"><g class="cls-2"><path class="cls-17" d="M357.87,290.37H338.13c-.79-.09-1.52-.16-2.24-.22h19.74c.73.06,1.45.13,2.24.22"/></g></g></g><g class="cls-2"><g class="cls-21"><g class="cls-2"><path class="cls-17" d="M355.63,290.15H335.89c-.79-.09-1.52-.12-2.24-.18l-1.16-.06h19.74l1.16.06c.72.06,1.45.09,2.24.18"/></g></g></g><g class="cls-2"><g class="cls-22"><g class="cls-2"><path class="cls-17" d="M352.23,289.91H332.49a11.66,11.66,0,0,0-1.18-.06h19.74a11.66,11.66,0,0,1,1.18.06"/></g></g></g><g class="cls-2"><g class="cls-23"><g class="cls-2"><path class="cls-17" d="M351.05,289.85H331.31c-1.12,0-2.09-.07-3.09-.07H348c1,0,2,0,3.09.07"/></g></g></g><g class="cls-2"><g class="cls-24"><g class="cls-2"><path class="cls-14" d="M348,265.08H328.22a107.19,107.19,0,0,0,20-1.84H368a107.19,107.19,0,0,1-20,1.84"/><path class="cls-16" d="M368,263.24H348.25a78.12,78.12,0,0,0,18.81-6H386.8a78.12,78.12,0,0,1-18.81,6"/><path class="cls-17" d="M386.8,257.28H367.06c10.29-4.89,17-11.72,17.84-19.34h19.74c-.87,7.62-7.55,14.45-17.84,19.34"/></g></g></g><g class="cls-2"><g class="cls-25"><g class="cls-2"><path class="cls-17" d="M404.64,234.6H384.9c-1.73-15.14-26.41-27.14-56.68-27.14H348c30.27,0,55,12,56.68,27.14"/></g></g></g><polygon class="cls-10" points="291.22 265.08 271.48 265.08 328.22 265.08 347.96 265.08 291.22 265.08"/><rect class="cls-8" x="247.02" y="182.73" width="19.74" height="205.87"/><path class="cls-12" d="M429,363.89l.21,24.7H404.64V326.85c0-17.74-19.12-32.58-44.59-36.2l-2.18-.28c-.79-.09-1.51-.16-2.24-.22s-1.52-.12-2.24-.18l-1.16-.06a11.66,11.66,0,0,0-1.18-.06c-1.12,0-2.09-.07-3.09-.07H291.09v98.81H266.77V182.73H348c43.48,0,79,22.58,81,50.91q.09,1.34.09,2.61c0,.9,0,1.76-.09,2.66-1.15,16-13,30.11-30.84,39.4a75.3,75.3,0,0,1,14.73,11.47C422.94,300.12,429,313,429,326.85Zm-81-98.81c30.27,0,55-12,56.68-27.14V234.6c-1.73-15.14-26.41-27.14-56.68-27.14H291.22v57.62H348"/><polygon class="cls-10" points="266.76 182.73 247.03 182.73 328.22 182.73 347.96 182.73 266.76 182.73"/></g><path class="cls-26" d="M701,292.45a6.06,6.06,0,0,0,5.4,3.13,14.58,14.58,0,0,0,14.34-14.81l-.6-37.63a14.58,14.58,0,0,0-4.44-10.24,14.73,14.73,0,0,0-2.18-1.74,14.55,14.55,0,0,0-8.19-2.36,6,6,0,0,0-4.31,1.9"/><line class="cls-27" x1="713.47" y1="231.39" x2="722.86" y2="207.34"/><path class="cls-28" d="M728.83,207.25a6,6,0,0,1-5.87,6.06,5.83,5.83,0,0,1-2.27-.4,6,6,0,1,1,8.14-5.66Z"/><path class="cls-26" d="M510.69,295.51h0a6,6,0,0,1-5.28,3.29,14.58,14.58,0,0,1-14.81-14.34l-.6-37.62a14.49,14.49,0,0,1,4.1-10.38,14.08,14.08,0,0,1,2.12-1.81,14.54,14.54,0,0,1,8.12-2.62,6,6,0,0,1,4.36,1.76"/><line class="cls-27" x1="496.32" y1="234.87" x2="486.16" y2="211.14"/><path class="cls-28" d="M492.14,211.05a6,6,0,0,1-3.62,5.58,5.86,5.86,0,0,1-2.26.48,6,6,0,1,1,5.88-6.06Z"/><path class="cls-29" d="M687.62,332.27l1.14,1.27A157,157,0,0,1,707.46,359a115.93,115.93,0,0,1,7.38,15,11.22,11.22,0,0,1-14.79,14.5,120.1,120.1,0,0,1-14.24-7.19,105.8,105.8,0,0,1-23.5-18.82h0q-1.65-1.76-3.22-3.6Z"/><line class="cls-1" x1="707.46" y1="359" x2="685.81" y2="381.36"/><path class="cls-29" d="M554.82,360.54l-.06.08c-1.72,2.16-3.52,4.23-5.38,6.22a106.85,106.85,0,0,1-20.6,17,122.52,122.52,0,0,1-14,7.64,11.22,11.22,0,0,1-15.25-14,115.39,115.39,0,0,1,6.9-15.27,158.08,158.08,0,0,1,18.69-27l.28-.33Z"/><line class="cls-1" x1="528.78" y1="383.88" x2="506.42" y2="362.23"/><path class="cls-29" d="M501.24,271a104.25,104.25,0,1,1,157.47,88l-.22.13A104.28,104.28,0,0,1,501.24,271Z"/><path class="cls-30" d="M688.25,283.79s-106.15,63.06-172.76.87C576.81,305.81,634.17,304.22,688.25,283.79Z"/><path class="cls-30" d="M554.31,361.58a107.21,107.21,0,0,1-14.48,11.81c-12.92-6.12-20.63-19.13-17.92-32.09a24.51,24.51,0,0,1,1.23-4.12c.06-.15.12-.29.17-.44l.17.18q4.11,4.18,8.56,8.1l1.08,1,.66.56,1.39,1.17.27.22c.53.45,1.06.88,1.59,1.31l.23.19,1.32,1.05,1,.79.77.6,1.13.86.84.64,1,.75,1.13.83c1.22.88,2.45,1.75,3.71,2.61.69.48,1.39.95,2.1,1.42l2.13,1.4,1.48.95Z"/><path class="cls-30" d="M688.23,333.47S672,352.47,659.72,359c0,0,9.84,12.2,15.18,15.1C674.9,374.14,699.71,338.17,688.23,333.47Z"/><path class="cls-27" d="M687.62,332.27l1.14,1.27A157,157,0,0,1,707.46,359a115.93,115.93,0,0,1,7.38,15,11.22,11.22,0,0,1-14.79,14.5,120.1,120.1,0,0,1-14.24-7.19,105.8,105.8,0,0,1-23.5-18.82h0q-1.65-1.76-3.22-3.6"/><line class="cls-27" x1="707.46" y1="359" x2="685.81" y2="381.36"/><path class="cls-27" d="M554.82,360.54l-.06.08c-1.72,2.16-3.52,4.23-5.38,6.22a106.85,106.85,0,0,1-20.6,17,122.52,122.52,0,0,1-14,7.64,11.22,11.22,0,0,1-15.25-14,115.39,115.39,0,0,1,6.9-15.27,158.08,158.08,0,0,1,18.69-27l.28-.33"/><line class="cls-27" x1="528.78" y1="383.88" x2="506.42" y2="362.23"/><path class="cls-30" d="M586,254.61l51.63,13.67q-11,2.3-22,3.5a216,216,0,0,1-45.18.24q-9-.91-18-2.6c-18.21-3.41-31.78-15.23-35-29.7Z"/><path class="cls-27" d="M501.24,271a104.25,104.25,0,1,1,157.47,88l-.22.13A104.28,104.28,0,0,1,501.24,271Z"/><path class="cls-27" d="M520.21,285.94q89.28,36.12,171.18-2.21a7.53,7.53,0,0,0,4.33-7l-.51-31.9a7.55,7.55,0,0,0-10.57-6.78q-76.51,33.18-159.44,1.78A7.54,7.54,0,0,0,515,247.05l.52,32A7.52,7.52,0,0,0,520.21,285.94Z"/><path class="cls-31" d="M665.85,261.26l.28,17.52a4.17,4.17,0,0,1-2.91,3.82l-.78.3a161.73,161.73,0,0,1-84.24,8.58,193.88,193.88,0,0,1-29.91-7.33,4.19,4.19,0,0,1-3.14-3.76l-.28-17.58c0-2.93,3.53-5,6.86-4q55.6,17.08,107-1.29C662.1,256.37,665.81,258.3,665.85,261.26Z"/><path class="cls-32" d="M665.92,265.2l.21,13.29a34.78,34.78,0,0,1-3.69,4.41,161.73,161.73,0,0,1-84.24,8.58Z"/><circle class="cls-33" cx="632.12" cy="278.55" r="5.46"/><circle class="cls-33" cx="579.14" cy="279.4" r="5.46"/><path class="cls-27" d="M546.25,355.16c44.8-22.58,130.84-40.76,155.47-45.68"/><path class="cls-29" d="M131.11,133.2c10.58-2.39,392.1-142.64,1085.94-33.71C1217,86.89,829.1-138.06,131.11,133.2Z"/></g></g></svg>